<mxfile host="app.diagrams.net" agent="Mozilla/5.0 (Windows NT 10.0; Win64; x64) AppleWebKit/537.36 (KHTML, like Gecko) Chrome/135.0.0.0 Safari/537.36 Edg/135.0.0.0" version="26.2.7">
  <diagram id="R2lEEEUBdFMjLlhIrx00" name="Page-1">
    <mxGraphModel dx="1773" dy="890" grid="1" gridSize="10" guides="1" tooltips="1" connect="1" arrows="1" fold="1" page="1" pageScale="1" pageWidth="850" pageHeight="1100" math="0" shadow="0" extFonts="Permanent Marker^https://fonts.googleapis.com/css?family=Permanent+Marker">
      <root>
        <mxCell id="0" />
        <mxCell id="1" parent="0" />
        <mxCell id="HEfpb9QHLHgI1IoFtFjU-3" value="用户id" style="ellipse;whiteSpace=wrap;html=1;" vertex="1" parent="1">
          <mxGeometry x="150" y="180" width="120" height="80" as="geometry" />
        </mxCell>
        <mxCell id="HEfpb9QHLHgI1IoFtFjU-4" value="用户" style="rounded=0;whiteSpace=wrap;html=1;" vertex="1" parent="1">
          <mxGeometry x="180" y="340" width="120" height="60" as="geometry" />
        </mxCell>
        <mxCell id="HEfpb9QHLHgI1IoFtFjU-25" style="rounded=0;orthogonalLoop=1;jettySize=auto;html=1;exitX=0;exitY=1;exitDx=0;exitDy=0;entryX=0.75;entryY=0;entryDx=0;entryDy=0;endArrow=none;startFill=0;" edge="1" parent="1" source="HEfpb9QHLHgI1IoFtFjU-15" target="HEfpb9QHLHgI1IoFtFjU-4">
          <mxGeometry relative="1" as="geometry" />
        </mxCell>
        <mxCell id="HEfpb9QHLHgI1IoFtFjU-15" value="钱包地址" style="ellipse;whiteSpace=wrap;html=1;" vertex="1" parent="1">
          <mxGeometry x="310" y="180" width="120" height="80" as="geometry" />
        </mxCell>
        <mxCell id="HEfpb9QHLHgI1IoFtFjU-26" style="rounded=0;orthogonalLoop=1;jettySize=auto;html=1;exitX=0;exitY=0.5;exitDx=0;exitDy=0;entryX=1;entryY=0.5;entryDx=0;entryDy=0;endArrow=none;startFill=0;" edge="1" parent="1" source="HEfpb9QHLHgI1IoFtFjU-16" target="HEfpb9QHLHgI1IoFtFjU-4">
          <mxGeometry relative="1" as="geometry" />
        </mxCell>
        <mxCell id="HEfpb9QHLHgI1IoFtFjU-16" value="角色" style="ellipse;whiteSpace=wrap;html=1;" vertex="1" parent="1">
          <mxGeometry x="365" y="300" width="120" height="80" as="geometry" />
        </mxCell>
        <mxCell id="HEfpb9QHLHgI1IoFtFjU-18" value="用户名" style="ellipse;whiteSpace=wrap;html=1;" vertex="1" parent="1">
          <mxGeometry x="330" y="460" width="120" height="80" as="geometry" />
        </mxCell>
        <mxCell id="HEfpb9QHLHgI1IoFtFjU-28" style="rounded=0;orthogonalLoop=1;jettySize=auto;html=1;exitX=0.5;exitY=0;exitDx=0;exitDy=0;entryX=0.5;entryY=1;entryDx=0;entryDy=0;endArrow=none;startFill=0;" edge="1" parent="1" source="HEfpb9QHLHgI1IoFtFjU-19" target="HEfpb9QHLHgI1IoFtFjU-4">
          <mxGeometry relative="1" as="geometry" />
        </mxCell>
        <mxCell id="HEfpb9QHLHgI1IoFtFjU-19" value="链上注册hash" style="ellipse;whiteSpace=wrap;html=1;" vertex="1" parent="1">
          <mxGeometry x="180" y="480" width="120" height="80" as="geometry" />
        </mxCell>
        <mxCell id="HEfpb9QHLHgI1IoFtFjU-20" value="随机数" style="ellipse;whiteSpace=wrap;html=1;" vertex="1" parent="1">
          <mxGeometry x="20" y="480" width="120" height="80" as="geometry" />
        </mxCell>
        <mxCell id="HEfpb9QHLHgI1IoFtFjU-24" style="rounded=0;orthogonalLoop=1;jettySize=auto;html=1;exitX=0.5;exitY=1;exitDx=0;exitDy=0;entryX=0.417;entryY=0;entryDx=0;entryDy=0;entryPerimeter=0;endArrow=none;startFill=0;" edge="1" parent="1" source="HEfpb9QHLHgI1IoFtFjU-3" target="HEfpb9QHLHgI1IoFtFjU-4">
          <mxGeometry relative="1" as="geometry" />
        </mxCell>
        <mxCell id="HEfpb9QHLHgI1IoFtFjU-27" style="rounded=0;orthogonalLoop=1;jettySize=auto;html=1;exitX=0;exitY=0;exitDx=0;exitDy=0;entryX=0.898;entryY=0.988;entryDx=0;entryDy=0;entryPerimeter=0;endArrow=none;startFill=0;" edge="1" parent="1" source="HEfpb9QHLHgI1IoFtFjU-18" target="HEfpb9QHLHgI1IoFtFjU-4">
          <mxGeometry relative="1" as="geometry" />
        </mxCell>
        <mxCell id="HEfpb9QHLHgI1IoFtFjU-29" style="rounded=0;orthogonalLoop=1;jettySize=auto;html=1;exitX=1;exitY=0;exitDx=0;exitDy=0;entryX=0.157;entryY=0.992;entryDx=0;entryDy=0;entryPerimeter=0;endArrow=none;startFill=0;" edge="1" parent="1" source="HEfpb9QHLHgI1IoFtFjU-20" target="HEfpb9QHLHgI1IoFtFjU-4">
          <mxGeometry relative="1" as="geometry" />
        </mxCell>
        <mxCell id="HEfpb9QHLHgI1IoFtFjU-30" value="会员id" style="ellipse;whiteSpace=wrap;html=1;" vertex="1" parent="1">
          <mxGeometry x="680" y="190" width="120" height="80" as="geometry" />
        </mxCell>
        <mxCell id="HEfpb9QHLHgI1IoFtFjU-43" style="rounded=0;orthogonalLoop=1;jettySize=auto;html=1;exitX=0.5;exitY=0;exitDx=0;exitDy=0;endArrow=none;startFill=0;" edge="1" parent="1" source="HEfpb9QHLHgI1IoFtFjU-31">
          <mxGeometry relative="1" as="geometry">
            <mxPoint x="900" y="230" as="targetPoint" />
          </mxGeometry>
        </mxCell>
        <mxCell id="HEfpb9QHLHgI1IoFtFjU-31" value="会员" style="rounded=0;whiteSpace=wrap;html=1;" vertex="1" parent="1">
          <mxGeometry x="790" y="350" width="120" height="60" as="geometry" />
        </mxCell>
        <mxCell id="HEfpb9QHLHgI1IoFtFjU-36" value="购买hash" style="ellipse;whiteSpace=wrap;html=1;" vertex="1" parent="1">
          <mxGeometry x="980" y="460" width="120" height="80" as="geometry" />
        </mxCell>
        <mxCell id="HEfpb9QHLHgI1IoFtFjU-37" style="rounded=0;orthogonalLoop=1;jettySize=auto;html=1;exitX=0.5;exitY=0;exitDx=0;exitDy=0;entryX=0.5;entryY=1;entryDx=0;entryDy=0;endArrow=none;startFill=0;" edge="1" parent="1" source="HEfpb9QHLHgI1IoFtFjU-38" target="HEfpb9QHLHgI1IoFtFjU-31">
          <mxGeometry relative="1" as="geometry" />
        </mxCell>
        <mxCell id="HEfpb9QHLHgI1IoFtFjU-38" value="到期时间" style="ellipse;whiteSpace=wrap;html=1;" vertex="1" parent="1">
          <mxGeometry x="790" y="490" width="120" height="80" as="geometry" />
        </mxCell>
        <mxCell id="HEfpb9QHLHgI1IoFtFjU-39" value="活跃状态" style="ellipse;whiteSpace=wrap;html=1;" vertex="1" parent="1">
          <mxGeometry x="630" y="490" width="120" height="80" as="geometry" />
        </mxCell>
        <mxCell id="HEfpb9QHLHgI1IoFtFjU-40" style="rounded=0;orthogonalLoop=1;jettySize=auto;html=1;exitX=0.5;exitY=1;exitDx=0;exitDy=0;entryX=0.417;entryY=0;entryDx=0;entryDy=0;entryPerimeter=0;endArrow=none;startFill=0;" edge="1" parent="1" source="HEfpb9QHLHgI1IoFtFjU-30" target="HEfpb9QHLHgI1IoFtFjU-31">
          <mxGeometry relative="1" as="geometry" />
        </mxCell>
        <mxCell id="HEfpb9QHLHgI1IoFtFjU-41" style="rounded=0;orthogonalLoop=1;jettySize=auto;html=1;exitX=0;exitY=0;exitDx=0;exitDy=0;entryX=0.898;entryY=0.988;entryDx=0;entryDy=0;entryPerimeter=0;endArrow=none;startFill=0;" edge="1" parent="1" source="HEfpb9QHLHgI1IoFtFjU-36" target="HEfpb9QHLHgI1IoFtFjU-31">
          <mxGeometry relative="1" as="geometry" />
        </mxCell>
        <mxCell id="HEfpb9QHLHgI1IoFtFjU-42" style="rounded=0;orthogonalLoop=1;jettySize=auto;html=1;exitX=1;exitY=0;exitDx=0;exitDy=0;entryX=0.157;entryY=0.992;entryDx=0;entryDy=0;entryPerimeter=0;endArrow=none;startFill=0;" edge="1" parent="1" source="HEfpb9QHLHgI1IoFtFjU-39" target="HEfpb9QHLHgI1IoFtFjU-31">
          <mxGeometry relative="1" as="geometry" />
        </mxCell>
        <mxCell id="HEfpb9QHLHgI1IoFtFjU-44" value="活跃状态" style="ellipse;whiteSpace=wrap;html=1;" vertex="1" parent="1">
          <mxGeometry x="850" y="150" width="120" height="80" as="geometry" />
        </mxCell>
        <mxCell id="HEfpb9QHLHgI1IoFtFjU-47" style="rounded=0;orthogonalLoop=1;jettySize=auto;html=1;exitX=0;exitY=0.5;exitDx=0;exitDy=0;entryX=1;entryY=0.5;entryDx=0;entryDy=0;endArrow=none;startFill=0;" edge="1" parent="1" source="HEfpb9QHLHgI1IoFtFjU-48" target="HEfpb9QHLHgI1IoFtFjU-31">
          <mxGeometry relative="1" as="geometry">
            <mxPoint x="920" y="410" as="targetPoint" />
          </mxGeometry>
        </mxCell>
        <mxCell id="HEfpb9QHLHgI1IoFtFjU-48" value="操作hash" style="ellipse;whiteSpace=wrap;html=1;" vertex="1" parent="1">
          <mxGeometry x="1050" y="340" width="120" height="80" as="geometry" />
        </mxCell>
        <mxCell id="HEfpb9QHLHgI1IoFtFjU-49" value="课程id" style="ellipse;whiteSpace=wrap;html=1;" vertex="1" parent="1">
          <mxGeometry x="210" y="740" width="120" height="80" as="geometry" />
        </mxCell>
        <mxCell id="HEfpb9QHLHgI1IoFtFjU-50" value="课程" style="rounded=0;whiteSpace=wrap;html=1;" vertex="1" parent="1">
          <mxGeometry x="240" y="900" width="120" height="60" as="geometry" />
        </mxCell>
        <mxCell id="HEfpb9QHLHgI1IoFtFjU-51" style="rounded=0;orthogonalLoop=1;jettySize=auto;html=1;exitX=0;exitY=1;exitDx=0;exitDy=0;entryX=0.75;entryY=0;entryDx=0;entryDy=0;endArrow=none;startFill=0;" edge="1" parent="1" source="HEfpb9QHLHgI1IoFtFjU-52" target="HEfpb9QHLHgI1IoFtFjU-50">
          <mxGeometry relative="1" as="geometry" />
        </mxCell>
        <mxCell id="HEfpb9QHLHgI1IoFtFjU-52" value="教练钱包地址" style="ellipse;whiteSpace=wrap;html=1;" vertex="1" parent="1">
          <mxGeometry x="370" y="740" width="120" height="80" as="geometry" />
        </mxCell>
        <mxCell id="HEfpb9QHLHgI1IoFtFjU-53" style="rounded=0;orthogonalLoop=1;jettySize=auto;html=1;exitX=0;exitY=0.5;exitDx=0;exitDy=0;entryX=1;entryY=0.5;entryDx=0;entryDy=0;endArrow=none;startFill=0;" edge="1" parent="1" source="HEfpb9QHLHgI1IoFtFjU-54" target="HEfpb9QHLHgI1IoFtFjU-50">
          <mxGeometry relative="1" as="geometry" />
        </mxCell>
        <mxCell id="HEfpb9QHLHgI1IoFtFjU-54" value="课程类型" style="ellipse;whiteSpace=wrap;html=1;" vertex="1" parent="1">
          <mxGeometry x="425" y="860" width="120" height="80" as="geometry" />
        </mxCell>
        <mxCell id="HEfpb9QHLHgI1IoFtFjU-55" value="时长" style="ellipse;whiteSpace=wrap;html=1;" vertex="1" parent="1">
          <mxGeometry x="390" y="1020" width="120" height="80" as="geometry" />
        </mxCell>
        <mxCell id="HEfpb9QHLHgI1IoFtFjU-56" style="rounded=0;orthogonalLoop=1;jettySize=auto;html=1;exitX=0.5;exitY=0;exitDx=0;exitDy=0;entryX=0.5;entryY=1;entryDx=0;entryDy=0;endArrow=none;startFill=0;" edge="1" parent="1" source="HEfpb9QHLHgI1IoFtFjU-57" target="HEfpb9QHLHgI1IoFtFjU-50">
          <mxGeometry relative="1" as="geometry" />
        </mxCell>
        <mxCell id="HEfpb9QHLHgI1IoFtFjU-57" value="折扣" style="ellipse;whiteSpace=wrap;html=1;" vertex="1" parent="1">
          <mxGeometry x="240" y="1040" width="120" height="80" as="geometry" />
        </mxCell>
        <mxCell id="HEfpb9QHLHgI1IoFtFjU-58" value="价格" style="ellipse;whiteSpace=wrap;html=1;" vertex="1" parent="1">
          <mxGeometry x="80" y="1040" width="120" height="80" as="geometry" />
        </mxCell>
        <mxCell id="HEfpb9QHLHgI1IoFtFjU-59" style="rounded=0;orthogonalLoop=1;jettySize=auto;html=1;exitX=0.5;exitY=1;exitDx=0;exitDy=0;entryX=0.417;entryY=0;entryDx=0;entryDy=0;entryPerimeter=0;endArrow=none;startFill=0;" edge="1" parent="1" source="HEfpb9QHLHgI1IoFtFjU-49" target="HEfpb9QHLHgI1IoFtFjU-50">
          <mxGeometry relative="1" as="geometry" />
        </mxCell>
        <mxCell id="HEfpb9QHLHgI1IoFtFjU-60" style="rounded=0;orthogonalLoop=1;jettySize=auto;html=1;exitX=0;exitY=0;exitDx=0;exitDy=0;entryX=0.898;entryY=0.988;entryDx=0;entryDy=0;entryPerimeter=0;endArrow=none;startFill=0;" edge="1" parent="1" source="HEfpb9QHLHgI1IoFtFjU-55" target="HEfpb9QHLHgI1IoFtFjU-50">
          <mxGeometry relative="1" as="geometry" />
        </mxCell>
        <mxCell id="HEfpb9QHLHgI1IoFtFjU-61" style="rounded=0;orthogonalLoop=1;jettySize=auto;html=1;exitX=1;exitY=0;exitDx=0;exitDy=0;entryX=0.157;entryY=0.992;entryDx=0;entryDy=0;entryPerimeter=0;endArrow=none;startFill=0;" edge="1" parent="1" source="HEfpb9QHLHgI1IoFtFjU-58" target="HEfpb9QHLHgI1IoFtFjU-50">
          <mxGeometry relative="1" as="geometry" />
        </mxCell>
        <mxCell id="HEfpb9QHLHgI1IoFtFjU-101" value="用户id" style="ellipse;whiteSpace=wrap;html=1;fontSize=19;" vertex="1" parent="1">
          <mxGeometry x="1900" y="230" width="120" height="80" as="geometry" />
        </mxCell>
        <mxCell id="HEfpb9QHLHgI1IoFtFjU-141" style="rounded=0;orthogonalLoop=1;jettySize=auto;html=1;exitX=1;exitY=0.5;exitDx=0;exitDy=0;entryX=0;entryY=0.5;entryDx=0;entryDy=0;endArrow=none;startFill=0;fontSize=19;" edge="1" parent="1" source="HEfpb9QHLHgI1IoFtFjU-102" target="HEfpb9QHLHgI1IoFtFjU-140">
          <mxGeometry relative="1" as="geometry" />
        </mxCell>
        <mxCell id="HEfpb9QHLHgI1IoFtFjU-143" value="1" style="edgeLabel;html=1;align=center;verticalAlign=middle;resizable=0;points=[];fontSize=19;" vertex="1" connectable="0" parent="HEfpb9QHLHgI1IoFtFjU-141">
          <mxGeometry x="0.0458" y="-1" relative="1" as="geometry">
            <mxPoint as="offset" />
          </mxGeometry>
        </mxCell>
        <mxCell id="HEfpb9QHLHgI1IoFtFjU-102" value="用户" style="rounded=0;whiteSpace=wrap;html=1;fontSize=19;" vertex="1" parent="1">
          <mxGeometry x="1930" y="390" width="120" height="60" as="geometry" />
        </mxCell>
        <mxCell id="HEfpb9QHLHgI1IoFtFjU-103" style="rounded=0;orthogonalLoop=1;jettySize=auto;html=1;exitX=0;exitY=1;exitDx=0;exitDy=0;entryX=0.75;entryY=0;entryDx=0;entryDy=0;endArrow=none;startFill=0;fontSize=19;" edge="1" parent="1" source="HEfpb9QHLHgI1IoFtFjU-104" target="HEfpb9QHLHgI1IoFtFjU-102">
          <mxGeometry relative="1" as="geometry" />
        </mxCell>
        <mxCell id="HEfpb9QHLHgI1IoFtFjU-104" value="钱包地址" style="ellipse;whiteSpace=wrap;html=1;fontSize=19;" vertex="1" parent="1">
          <mxGeometry x="2060" y="230" width="120" height="80" as="geometry" />
        </mxCell>
        <mxCell id="HEfpb9QHLHgI1IoFtFjU-105" style="rounded=0;orthogonalLoop=1;jettySize=auto;html=1;exitX=0.945;exitY=0.759;exitDx=0;exitDy=0;entryX=0;entryY=0.5;entryDx=0;entryDy=0;endArrow=none;startFill=0;exitPerimeter=0;fontSize=19;" edge="1" parent="1" source="HEfpb9QHLHgI1IoFtFjU-106" target="HEfpb9QHLHgI1IoFtFjU-102">
          <mxGeometry relative="1" as="geometry" />
        </mxCell>
        <mxCell id="HEfpb9QHLHgI1IoFtFjU-106" value="角色" style="ellipse;whiteSpace=wrap;html=1;fontSize=19;" vertex="1" parent="1">
          <mxGeometry x="1690" y="340" width="120" height="80" as="geometry" />
        </mxCell>
        <mxCell id="HEfpb9QHLHgI1IoFtFjU-107" value="用户名" style="ellipse;whiteSpace=wrap;html=1;fontSize=19;" vertex="1" parent="1">
          <mxGeometry x="2080" y="510" width="120" height="80" as="geometry" />
        </mxCell>
        <mxCell id="HEfpb9QHLHgI1IoFtFjU-108" style="rounded=0;orthogonalLoop=1;jettySize=auto;html=1;exitX=0.5;exitY=0;exitDx=0;exitDy=0;entryX=0.5;entryY=1;entryDx=0;entryDy=0;endArrow=none;startFill=0;fontSize=19;" edge="1" parent="1" source="HEfpb9QHLHgI1IoFtFjU-109" target="HEfpb9QHLHgI1IoFtFjU-102">
          <mxGeometry relative="1" as="geometry" />
        </mxCell>
        <mxCell id="HEfpb9QHLHgI1IoFtFjU-109" value="链上注册hash" style="ellipse;whiteSpace=wrap;html=1;fontSize=19;" vertex="1" parent="1">
          <mxGeometry x="1930" y="530" width="120" height="80" as="geometry" />
        </mxCell>
        <mxCell id="HEfpb9QHLHgI1IoFtFjU-110" value="随机数" style="ellipse;whiteSpace=wrap;html=1;fontSize=19;" vertex="1" parent="1">
          <mxGeometry x="1770" y="530" width="120" height="80" as="geometry" />
        </mxCell>
        <mxCell id="HEfpb9QHLHgI1IoFtFjU-111" style="rounded=0;orthogonalLoop=1;jettySize=auto;html=1;exitX=0.5;exitY=1;exitDx=0;exitDy=0;entryX=0.417;entryY=0;entryDx=0;entryDy=0;entryPerimeter=0;endArrow=none;startFill=0;fontSize=19;" edge="1" parent="1" source="HEfpb9QHLHgI1IoFtFjU-101" target="HEfpb9QHLHgI1IoFtFjU-102">
          <mxGeometry relative="1" as="geometry" />
        </mxCell>
        <mxCell id="HEfpb9QHLHgI1IoFtFjU-112" style="rounded=0;orthogonalLoop=1;jettySize=auto;html=1;exitX=0;exitY=0;exitDx=0;exitDy=0;entryX=0.898;entryY=0.988;entryDx=0;entryDy=0;entryPerimeter=0;endArrow=none;startFill=0;fontSize=19;" edge="1" parent="1" source="HEfpb9QHLHgI1IoFtFjU-107" target="HEfpb9QHLHgI1IoFtFjU-102">
          <mxGeometry relative="1" as="geometry" />
        </mxCell>
        <mxCell id="HEfpb9QHLHgI1IoFtFjU-113" style="rounded=0;orthogonalLoop=1;jettySize=auto;html=1;exitX=1;exitY=0;exitDx=0;exitDy=0;entryX=0.157;entryY=0.992;entryDx=0;entryDy=0;entryPerimeter=0;endArrow=none;startFill=0;fontSize=19;" edge="1" parent="1" source="HEfpb9QHLHgI1IoFtFjU-110" target="HEfpb9QHLHgI1IoFtFjU-102">
          <mxGeometry relative="1" as="geometry" />
        </mxCell>
        <mxCell id="HEfpb9QHLHgI1IoFtFjU-114" value="会员id" style="ellipse;whiteSpace=wrap;html=1;fontSize=19;" vertex="1" parent="1">
          <mxGeometry x="2430" y="240" width="120" height="80" as="geometry" />
        </mxCell>
        <mxCell id="HEfpb9QHLHgI1IoFtFjU-115" style="rounded=0;orthogonalLoop=1;jettySize=auto;html=1;exitX=0.646;exitY=0.025;exitDx=0;exitDy=0;endArrow=none;startFill=0;exitPerimeter=0;entryX=0.25;entryY=1;entryDx=0;entryDy=0;entryPerimeter=0;fontSize=19;" edge="1" parent="1" source="HEfpb9QHLHgI1IoFtFjU-116" target="HEfpb9QHLHgI1IoFtFjU-124">
          <mxGeometry relative="1" as="geometry">
            <mxPoint x="2650" y="280" as="targetPoint" />
          </mxGeometry>
        </mxCell>
        <mxCell id="HEfpb9QHLHgI1IoFtFjU-116" value="会员" style="rounded=0;whiteSpace=wrap;html=1;fontSize=19;" vertex="1" parent="1">
          <mxGeometry x="2540" y="400" width="120" height="60" as="geometry" />
        </mxCell>
        <mxCell id="HEfpb9QHLHgI1IoFtFjU-117" value="购买hash" style="ellipse;whiteSpace=wrap;html=1;fontSize=19;" vertex="1" parent="1">
          <mxGeometry x="2730" y="510" width="120" height="80" as="geometry" />
        </mxCell>
        <mxCell id="HEfpb9QHLHgI1IoFtFjU-118" style="rounded=0;orthogonalLoop=1;jettySize=auto;html=1;exitX=0.5;exitY=0;exitDx=0;exitDy=0;entryX=0.5;entryY=1;entryDx=0;entryDy=0;endArrow=none;startFill=0;fontSize=19;" edge="1" parent="1" source="HEfpb9QHLHgI1IoFtFjU-119" target="HEfpb9QHLHgI1IoFtFjU-116">
          <mxGeometry relative="1" as="geometry" />
        </mxCell>
        <mxCell id="HEfpb9QHLHgI1IoFtFjU-119" value="到期时间" style="ellipse;whiteSpace=wrap;html=1;fontSize=19;" vertex="1" parent="1">
          <mxGeometry x="2600" y="540" width="120" height="80" as="geometry" />
        </mxCell>
        <mxCell id="HEfpb9QHLHgI1IoFtFjU-120" value="活跃状态" style="ellipse;whiteSpace=wrap;html=1;fontSize=19;" vertex="1" parent="1">
          <mxGeometry x="2740" y="250" width="120" height="80" as="geometry" />
        </mxCell>
        <mxCell id="HEfpb9QHLHgI1IoFtFjU-121" style="rounded=0;orthogonalLoop=1;jettySize=auto;html=1;exitX=0.5;exitY=1;exitDx=0;exitDy=0;entryX=0.417;entryY=0;entryDx=0;entryDy=0;entryPerimeter=0;endArrow=none;startFill=0;fontSize=19;" edge="1" parent="1" source="HEfpb9QHLHgI1IoFtFjU-114" target="HEfpb9QHLHgI1IoFtFjU-116">
          <mxGeometry relative="1" as="geometry" />
        </mxCell>
        <mxCell id="HEfpb9QHLHgI1IoFtFjU-122" style="rounded=0;orthogonalLoop=1;jettySize=auto;html=1;exitX=0;exitY=0;exitDx=0;exitDy=0;entryX=0.898;entryY=0.988;entryDx=0;entryDy=0;entryPerimeter=0;endArrow=none;startFill=0;fontSize=19;" edge="1" parent="1" source="HEfpb9QHLHgI1IoFtFjU-117" target="HEfpb9QHLHgI1IoFtFjU-116">
          <mxGeometry relative="1" as="geometry" />
        </mxCell>
        <mxCell id="HEfpb9QHLHgI1IoFtFjU-123" style="rounded=0;orthogonalLoop=1;jettySize=auto;html=1;exitX=0;exitY=1;exitDx=0;exitDy=0;endArrow=none;startFill=0;fontSize=19;" edge="1" parent="1" source="HEfpb9QHLHgI1IoFtFjU-120">
          <mxGeometry relative="1" as="geometry">
            <mxPoint x="2640" y="400" as="targetPoint" />
          </mxGeometry>
        </mxCell>
        <mxCell id="HEfpb9QHLHgI1IoFtFjU-124" value="活跃状态" style="ellipse;whiteSpace=wrap;html=1;fontSize=19;" vertex="1" parent="1">
          <mxGeometry x="2600" y="220" width="120" height="80" as="geometry" />
        </mxCell>
        <mxCell id="HEfpb9QHLHgI1IoFtFjU-125" style="rounded=0;orthogonalLoop=1;jettySize=auto;html=1;exitX=0;exitY=0.5;exitDx=0;exitDy=0;entryX=1;entryY=0.5;entryDx=0;entryDy=0;endArrow=none;startFill=0;fontSize=19;" edge="1" parent="1" source="HEfpb9QHLHgI1IoFtFjU-126" target="HEfpb9QHLHgI1IoFtFjU-116">
          <mxGeometry relative="1" as="geometry">
            <mxPoint x="2670" y="460" as="targetPoint" />
          </mxGeometry>
        </mxCell>
        <mxCell id="HEfpb9QHLHgI1IoFtFjU-126" value="操作hash" style="ellipse;whiteSpace=wrap;html=1;fontSize=19;" vertex="1" parent="1">
          <mxGeometry x="2800" y="390" width="120" height="80" as="geometry" />
        </mxCell>
        <mxCell id="HEfpb9QHLHgI1IoFtFjU-127" value="课程id" style="ellipse;whiteSpace=wrap;html=1;fontSize=19;" vertex="1" parent="1">
          <mxGeometry x="2110" y="810" width="120" height="80" as="geometry" />
        </mxCell>
        <mxCell id="HEfpb9QHLHgI1IoFtFjU-186" style="rounded=0;orthogonalLoop=1;jettySize=auto;html=1;exitX=1;exitY=0.25;exitDx=0;exitDy=0;entryX=0;entryY=0.5;entryDx=0;entryDy=0;endArrow=none;startFill=0;fontSize=19;" edge="1" parent="1" source="HEfpb9QHLHgI1IoFtFjU-128" target="HEfpb9QHLHgI1IoFtFjU-187">
          <mxGeometry relative="1" as="geometry">
            <mxPoint x="2590" y="855" as="targetPoint" />
          </mxGeometry>
        </mxCell>
        <mxCell id="HEfpb9QHLHgI1IoFtFjU-196" value="1" style="edgeLabel;html=1;align=center;verticalAlign=middle;resizable=0;points=[];fontSize=19;" vertex="1" connectable="0" parent="HEfpb9QHLHgI1IoFtFjU-186">
          <mxGeometry x="0.4052" y="-2" relative="1" as="geometry">
            <mxPoint as="offset" />
          </mxGeometry>
        </mxCell>
        <mxCell id="HEfpb9QHLHgI1IoFtFjU-128" value="课程" style="rounded=0;whiteSpace=wrap;html=1;fontSize=19;" vertex="1" parent="1">
          <mxGeometry x="2310" y="840" width="120" height="60" as="geometry" />
        </mxCell>
        <mxCell id="HEfpb9QHLHgI1IoFtFjU-129" style="rounded=0;orthogonalLoop=1;jettySize=auto;html=1;exitX=0;exitY=1;exitDx=0;exitDy=0;entryX=0.75;entryY=0;entryDx=0;entryDy=0;endArrow=none;startFill=0;fontSize=19;" edge="1" parent="1" source="HEfpb9QHLHgI1IoFtFjU-130" target="HEfpb9QHLHgI1IoFtFjU-128">
          <mxGeometry relative="1" as="geometry" />
        </mxCell>
        <mxCell id="HEfpb9QHLHgI1IoFtFjU-130" value="教练钱包地址" style="ellipse;whiteSpace=wrap;html=1;fontSize=19;" vertex="1" parent="1">
          <mxGeometry x="2540" y="650" width="120" height="80" as="geometry" />
        </mxCell>
        <mxCell id="HEfpb9QHLHgI1IoFtFjU-131" style="rounded=0;orthogonalLoop=1;jettySize=auto;html=1;exitX=0;exitY=0.5;exitDx=0;exitDy=0;entryX=1;entryY=0.5;entryDx=0;entryDy=0;endArrow=none;startFill=0;fontSize=19;" edge="1" parent="1" source="HEfpb9QHLHgI1IoFtFjU-132" target="HEfpb9QHLHgI1IoFtFjU-128">
          <mxGeometry relative="1" as="geometry" />
        </mxCell>
        <mxCell id="HEfpb9QHLHgI1IoFtFjU-132" value="课程类型" style="ellipse;whiteSpace=wrap;html=1;fontSize=19;" vertex="1" parent="1">
          <mxGeometry x="2560" y="930" width="120" height="80" as="geometry" />
        </mxCell>
        <mxCell id="HEfpb9QHLHgI1IoFtFjU-133" value="时长" style="ellipse;whiteSpace=wrap;html=1;fontSize=19;" vertex="1" parent="1">
          <mxGeometry x="2440" y="960" width="120" height="80" as="geometry" />
        </mxCell>
        <mxCell id="HEfpb9QHLHgI1IoFtFjU-134" style="rounded=0;orthogonalLoop=1;jettySize=auto;html=1;exitX=0.5;exitY=0;exitDx=0;exitDy=0;entryX=0.5;entryY=1;entryDx=0;entryDy=0;endArrow=none;startFill=0;fontSize=19;" edge="1" parent="1" source="HEfpb9QHLHgI1IoFtFjU-135" target="HEfpb9QHLHgI1IoFtFjU-128">
          <mxGeometry relative="1" as="geometry" />
        </mxCell>
        <mxCell id="HEfpb9QHLHgI1IoFtFjU-135" value="折扣" style="ellipse;whiteSpace=wrap;html=1;fontSize=19;" vertex="1" parent="1">
          <mxGeometry x="2290" y="980" width="120" height="80" as="geometry" />
        </mxCell>
        <mxCell id="HEfpb9QHLHgI1IoFtFjU-136" value="价格" style="ellipse;whiteSpace=wrap;html=1;fontSize=19;" vertex="1" parent="1">
          <mxGeometry x="2130" y="980" width="120" height="80" as="geometry" />
        </mxCell>
        <mxCell id="HEfpb9QHLHgI1IoFtFjU-137" style="rounded=0;orthogonalLoop=1;jettySize=auto;html=1;exitX=1;exitY=0.5;exitDx=0;exitDy=0;entryX=0;entryY=0.5;entryDx=0;entryDy=0;endArrow=none;startFill=0;fontSize=19;" edge="1" parent="1" source="HEfpb9QHLHgI1IoFtFjU-127" target="HEfpb9QHLHgI1IoFtFjU-128">
          <mxGeometry relative="1" as="geometry" />
        </mxCell>
        <mxCell id="HEfpb9QHLHgI1IoFtFjU-138" style="rounded=0;orthogonalLoop=1;jettySize=auto;html=1;exitX=0;exitY=0;exitDx=0;exitDy=0;entryX=0.898;entryY=0.988;entryDx=0;entryDy=0;entryPerimeter=0;endArrow=none;startFill=0;fontSize=19;" edge="1" parent="1" source="HEfpb9QHLHgI1IoFtFjU-133" target="HEfpb9QHLHgI1IoFtFjU-128">
          <mxGeometry relative="1" as="geometry" />
        </mxCell>
        <mxCell id="HEfpb9QHLHgI1IoFtFjU-139" style="rounded=0;orthogonalLoop=1;jettySize=auto;html=1;exitX=1;exitY=0;exitDx=0;exitDy=0;entryX=0.157;entryY=0.992;entryDx=0;entryDy=0;entryPerimeter=0;endArrow=none;startFill=0;fontSize=19;" edge="1" parent="1" source="HEfpb9QHLHgI1IoFtFjU-136" target="HEfpb9QHLHgI1IoFtFjU-128">
          <mxGeometry relative="1" as="geometry" />
        </mxCell>
        <mxCell id="HEfpb9QHLHgI1IoFtFjU-142" style="rounded=0;orthogonalLoop=1;jettySize=auto;html=1;exitX=1;exitY=0.5;exitDx=0;exitDy=0;entryX=0;entryY=0.5;entryDx=0;entryDy=0;endArrow=none;startFill=0;fontSize=19;" edge="1" parent="1" source="HEfpb9QHLHgI1IoFtFjU-140" target="HEfpb9QHLHgI1IoFtFjU-116">
          <mxGeometry relative="1" as="geometry" />
        </mxCell>
        <mxCell id="HEfpb9QHLHgI1IoFtFjU-144" value="n" style="edgeLabel;html=1;align=center;verticalAlign=middle;resizable=0;points=[];fontSize=19;" vertex="1" connectable="0" parent="HEfpb9QHLHgI1IoFtFjU-142">
          <mxGeometry x="0.0668" y="3" relative="1" as="geometry">
            <mxPoint as="offset" />
          </mxGeometry>
        </mxCell>
        <mxCell id="HEfpb9QHLHgI1IoFtFjU-140" value="拥有" style="rhombus;whiteSpace=wrap;html=1;fontSize=19;" vertex="1" parent="1">
          <mxGeometry x="2220" y="380" width="160" height="80" as="geometry" />
        </mxCell>
        <mxCell id="HEfpb9QHLHgI1IoFtFjU-145" style="rounded=0;orthogonalLoop=1;jettySize=auto;html=1;exitX=0.5;exitY=1;exitDx=0;exitDy=0;entryX=0.177;entryY=-0.018;entryDx=0;entryDy=0;entryPerimeter=0;endArrow=none;startFill=0;fontSize=19;" edge="1" parent="1" source="HEfpb9QHLHgI1IoFtFjU-146" target="HEfpb9QHLHgI1IoFtFjU-128">
          <mxGeometry relative="1" as="geometry" />
        </mxCell>
        <mxCell id="HEfpb9QHLHgI1IoFtFjU-148" value="1" style="edgeLabel;html=1;align=center;verticalAlign=middle;resizable=0;points=[];fontSize=19;" vertex="1" connectable="0" parent="HEfpb9QHLHgI1IoFtFjU-145">
          <mxGeometry x="0.0772" y="2" relative="1" as="geometry">
            <mxPoint as="offset" />
          </mxGeometry>
        </mxCell>
        <mxCell id="HEfpb9QHLHgI1IoFtFjU-147" value="" style="rounded=0;orthogonalLoop=1;jettySize=auto;html=1;exitX=0.25;exitY=1;exitDx=0;exitDy=0;entryX=0.5;entryY=0;entryDx=0;entryDy=0;endArrow=none;startFill=0;fontSize=19;" edge="1" parent="1" source="HEfpb9QHLHgI1IoFtFjU-116" target="HEfpb9QHLHgI1IoFtFjU-146">
          <mxGeometry relative="1" as="geometry">
            <mxPoint x="2570" y="460" as="sourcePoint" />
            <mxPoint x="2431" y="829" as="targetPoint" />
          </mxGeometry>
        </mxCell>
        <mxCell id="HEfpb9QHLHgI1IoFtFjU-149" value="1" style="edgeLabel;html=1;align=center;verticalAlign=middle;resizable=0;points=[];fontSize=19;" vertex="1" connectable="0" parent="HEfpb9QHLHgI1IoFtFjU-147">
          <mxGeometry x="-0.1067" y="-2" relative="1" as="geometry">
            <mxPoint as="offset" />
          </mxGeometry>
        </mxCell>
        <mxCell id="HEfpb9QHLHgI1IoFtFjU-146" value="包含" style="rhombus;whiteSpace=wrap;html=1;fontSize=19;" vertex="1" parent="1">
          <mxGeometry x="2420" y="570" width="160" height="80" as="geometry" />
        </mxCell>
        <mxCell id="HEfpb9QHLHgI1IoFtFjU-155" value="规划id" style="ellipse;whiteSpace=wrap;html=1;" vertex="1" parent="1">
          <mxGeometry x="807.5" y="760" width="120" height="80" as="geometry" />
        </mxCell>
        <mxCell id="HEfpb9QHLHgI1IoFtFjU-156" value="课程规划" style="rounded=0;whiteSpace=wrap;html=1;" vertex="1" parent="1">
          <mxGeometry x="837.5" y="920" width="120" height="60" as="geometry" />
        </mxCell>
        <mxCell id="HEfpb9QHLHgI1IoFtFjU-157" style="rounded=0;orthogonalLoop=1;jettySize=auto;html=1;exitX=0;exitY=1;exitDx=0;exitDy=0;entryX=0.75;entryY=0;entryDx=0;entryDy=0;endArrow=none;startFill=0;" edge="1" parent="1" source="HEfpb9QHLHgI1IoFtFjU-158" target="HEfpb9QHLHgI1IoFtFjU-156">
          <mxGeometry relative="1" as="geometry" />
        </mxCell>
        <mxCell id="HEfpb9QHLHgI1IoFtFjU-158" value="每次完成课程记录" style="ellipse;whiteSpace=wrap;html=1;" vertex="1" parent="1">
          <mxGeometry x="967.5" y="760" width="120" height="80" as="geometry" />
        </mxCell>
        <mxCell id="HEfpb9QHLHgI1IoFtFjU-159" style="rounded=0;orthogonalLoop=1;jettySize=auto;html=1;exitX=0;exitY=0.5;exitDx=0;exitDy=0;entryX=1;entryY=0.5;entryDx=0;entryDy=0;endArrow=none;startFill=0;" edge="1" parent="1" source="HEfpb9QHLHgI1IoFtFjU-160" target="HEfpb9QHLHgI1IoFtFjU-156">
          <mxGeometry relative="1" as="geometry" />
        </mxCell>
        <mxCell id="HEfpb9QHLHgI1IoFtFjU-160" value="课程id" style="ellipse;whiteSpace=wrap;html=1;" vertex="1" parent="1">
          <mxGeometry x="1022.5" y="910" width="120" height="80" as="geometry" />
        </mxCell>
        <mxCell id="HEfpb9QHLHgI1IoFtFjU-161" value="计划id" style="ellipse;whiteSpace=wrap;html=1;" vertex="1" parent="1">
          <mxGeometry x="957.5" y="1060" width="120" height="80" as="geometry" />
        </mxCell>
        <mxCell id="HEfpb9QHLHgI1IoFtFjU-165" style="rounded=0;orthogonalLoop=1;jettySize=auto;html=1;exitX=0.5;exitY=1;exitDx=0;exitDy=0;entryX=0.417;entryY=0;entryDx=0;entryDy=0;entryPerimeter=0;endArrow=none;startFill=0;" edge="1" parent="1" source="HEfpb9QHLHgI1IoFtFjU-155" target="HEfpb9QHLHgI1IoFtFjU-156">
          <mxGeometry relative="1" as="geometry" />
        </mxCell>
        <mxCell id="HEfpb9QHLHgI1IoFtFjU-166" style="rounded=0;orthogonalLoop=1;jettySize=auto;html=1;exitX=0;exitY=0;exitDx=0;exitDy=0;entryX=0.898;entryY=0.988;entryDx=0;entryDy=0;entryPerimeter=0;endArrow=none;startFill=0;" edge="1" parent="1" source="HEfpb9QHLHgI1IoFtFjU-161" target="HEfpb9QHLHgI1IoFtFjU-156">
          <mxGeometry relative="1" as="geometry" />
        </mxCell>
        <mxCell id="HEfpb9QHLHgI1IoFtFjU-168" value="计划id" style="ellipse;whiteSpace=wrap;html=1;" vertex="1" parent="1">
          <mxGeometry x="150" y="1260" width="120" height="80" as="geometry" />
        </mxCell>
        <mxCell id="HEfpb9QHLHgI1IoFtFjU-169" value="课程计划" style="rounded=0;whiteSpace=wrap;html=1;" vertex="1" parent="1">
          <mxGeometry x="180" y="1420" width="120" height="60" as="geometry" />
        </mxCell>
        <mxCell id="HEfpb9QHLHgI1IoFtFjU-170" style="rounded=0;orthogonalLoop=1;jettySize=auto;html=1;exitX=0;exitY=1;exitDx=0;exitDy=0;entryX=0.75;entryY=0;entryDx=0;entryDy=0;endArrow=none;startFill=0;" edge="1" parent="1" source="HEfpb9QHLHgI1IoFtFjU-171" target="HEfpb9QHLHgI1IoFtFjU-169">
          <mxGeometry relative="1" as="geometry" />
        </mxCell>
        <mxCell id="HEfpb9QHLHgI1IoFtFjU-171" value="课程类型" style="ellipse;whiteSpace=wrap;html=1;" vertex="1" parent="1">
          <mxGeometry x="310" y="1260" width="120" height="80" as="geometry" />
        </mxCell>
        <mxCell id="HEfpb9QHLHgI1IoFtFjU-172" style="rounded=0;orthogonalLoop=1;jettySize=auto;html=1;exitX=0;exitY=0.5;exitDx=0;exitDy=0;entryX=1;entryY=0.5;entryDx=0;entryDy=0;endArrow=none;startFill=0;" edge="1" parent="1" source="HEfpb9QHLHgI1IoFtFjU-173" target="HEfpb9QHLHgI1IoFtFjU-169">
          <mxGeometry relative="1" as="geometry" />
        </mxCell>
        <mxCell id="HEfpb9QHLHgI1IoFtFjU-173" value="计划" style="ellipse;whiteSpace=wrap;html=1;" vertex="1" parent="1">
          <mxGeometry x="365" y="1410" width="120" height="80" as="geometry" />
        </mxCell>
        <mxCell id="HEfpb9QHLHgI1IoFtFjU-175" style="rounded=0;orthogonalLoop=1;jettySize=auto;html=1;exitX=0.5;exitY=1;exitDx=0;exitDy=0;entryX=0.417;entryY=0;entryDx=0;entryDy=0;entryPerimeter=0;endArrow=none;startFill=0;" edge="1" parent="1" source="HEfpb9QHLHgI1IoFtFjU-168" target="HEfpb9QHLHgI1IoFtFjU-169">
          <mxGeometry relative="1" as="geometry" />
        </mxCell>
        <mxCell id="HEfpb9QHLHgI1IoFtFjU-177" value="规划id" style="ellipse;whiteSpace=wrap;html=1;fontSize=19;" vertex="1" parent="1">
          <mxGeometry x="2880" y="670" width="120" height="80" as="geometry" />
        </mxCell>
        <mxCell id="HEfpb9QHLHgI1IoFtFjU-199" style="rounded=0;orthogonalLoop=1;jettySize=auto;html=1;entryX=0.5;entryY=1;entryDx=0;entryDy=0;endArrow=none;startFill=0;fontSize=19;exitX=0.817;exitY=-0.018;exitDx=0;exitDy=0;exitPerimeter=0;" edge="1" parent="1" source="HEfpb9QHLHgI1IoFtFjU-178" target="HEfpb9QHLHgI1IoFtFjU-198">
          <mxGeometry relative="1" as="geometry">
            <mxPoint x="3020" y="820" as="sourcePoint" />
          </mxGeometry>
        </mxCell>
        <mxCell id="HEfpb9QHLHgI1IoFtFjU-201" value="1" style="edgeLabel;html=1;align=center;verticalAlign=middle;resizable=0;points=[];fontSize=19;" vertex="1" connectable="0" parent="HEfpb9QHLHgI1IoFtFjU-199">
          <mxGeometry x="-0.2448" y="1" relative="1" as="geometry">
            <mxPoint as="offset" />
          </mxGeometry>
        </mxCell>
        <mxCell id="HEfpb9QHLHgI1IoFtFjU-178" value="课程规划" style="rounded=0;whiteSpace=wrap;html=1;fontSize=19;" vertex="1" parent="1">
          <mxGeometry x="2910" y="830" width="120" height="60" as="geometry" />
        </mxCell>
        <mxCell id="HEfpb9QHLHgI1IoFtFjU-179" style="rounded=0;orthogonalLoop=1;jettySize=auto;html=1;exitX=0;exitY=1;exitDx=0;exitDy=0;entryX=0.124;entryY=1.017;entryDx=0;entryDy=0;endArrow=none;startFill=0;fontSize=19;entryPerimeter=0;" edge="1" parent="1" source="HEfpb9QHLHgI1IoFtFjU-180" target="HEfpb9QHLHgI1IoFtFjU-178">
          <mxGeometry relative="1" as="geometry" />
        </mxCell>
        <mxCell id="HEfpb9QHLHgI1IoFtFjU-180" value="每次完成课程记录" style="ellipse;whiteSpace=wrap;html=1;fontSize=19;" vertex="1" parent="1">
          <mxGeometry x="2800" y="950" width="170" height="80" as="geometry" />
        </mxCell>
        <mxCell id="HEfpb9QHLHgI1IoFtFjU-181" style="rounded=0;orthogonalLoop=1;jettySize=auto;html=1;exitX=0;exitY=0.5;exitDx=0;exitDy=0;entryX=1;entryY=0.5;entryDx=0;entryDy=0;endArrow=none;startFill=0;fontSize=19;" edge="1" parent="1" source="HEfpb9QHLHgI1IoFtFjU-182" target="HEfpb9QHLHgI1IoFtFjU-178">
          <mxGeometry relative="1" as="geometry" />
        </mxCell>
        <mxCell id="HEfpb9QHLHgI1IoFtFjU-182" value="课程id" style="ellipse;whiteSpace=wrap;html=1;fontSize=19;" vertex="1" parent="1">
          <mxGeometry x="3095" y="820" width="120" height="80" as="geometry" />
        </mxCell>
        <mxCell id="HEfpb9QHLHgI1IoFtFjU-183" value="计划id" style="ellipse;whiteSpace=wrap;html=1;fontSize=19;" vertex="1" parent="1">
          <mxGeometry x="2990" y="1020" width="120" height="80" as="geometry" />
        </mxCell>
        <mxCell id="HEfpb9QHLHgI1IoFtFjU-184" style="rounded=0;orthogonalLoop=1;jettySize=auto;html=1;exitX=0.5;exitY=1;exitDx=0;exitDy=0;entryX=0.417;entryY=0;entryDx=0;entryDy=0;entryPerimeter=0;endArrow=none;startFill=0;fontSize=19;" edge="1" parent="1" source="HEfpb9QHLHgI1IoFtFjU-177" target="HEfpb9QHLHgI1IoFtFjU-178">
          <mxGeometry relative="1" as="geometry" />
        </mxCell>
        <mxCell id="HEfpb9QHLHgI1IoFtFjU-185" style="rounded=0;orthogonalLoop=1;jettySize=auto;html=1;exitX=0.5;exitY=0;exitDx=0;exitDy=0;entryX=0.642;entryY=0.964;entryDx=0;entryDy=0;endArrow=none;startFill=0;fontSize=19;entryPerimeter=0;" edge="1" parent="1" source="HEfpb9QHLHgI1IoFtFjU-183" target="HEfpb9QHLHgI1IoFtFjU-178">
          <mxGeometry relative="1" as="geometry" />
        </mxCell>
        <mxCell id="HEfpb9QHLHgI1IoFtFjU-188" style="rounded=0;orthogonalLoop=1;jettySize=auto;html=1;exitX=1;exitY=0.5;exitDx=0;exitDy=0;entryX=0;entryY=0.5;entryDx=0;entryDy=0;endArrow=none;startFill=0;fontSize=19;" edge="1" parent="1" source="HEfpb9QHLHgI1IoFtFjU-187" target="HEfpb9QHLHgI1IoFtFjU-178">
          <mxGeometry relative="1" as="geometry" />
        </mxCell>
        <mxCell id="HEfpb9QHLHgI1IoFtFjU-197" value="1" style="edgeLabel;html=1;align=center;verticalAlign=middle;resizable=0;points=[];fontSize=19;" vertex="1" connectable="0" parent="HEfpb9QHLHgI1IoFtFjU-188">
          <mxGeometry x="-0.0224" y="1" relative="1" as="geometry">
            <mxPoint as="offset" />
          </mxGeometry>
        </mxCell>
        <mxCell id="HEfpb9QHLHgI1IoFtFjU-187" value="拥有" style="rhombus;whiteSpace=wrap;html=1;fontSize=19;" vertex="1" parent="1">
          <mxGeometry x="2670" y="820" width="160" height="80" as="geometry" />
        </mxCell>
        <mxCell id="HEfpb9QHLHgI1IoFtFjU-189" value="计划id" style="ellipse;whiteSpace=wrap;html=1;fontSize=19;" vertex="1" parent="1">
          <mxGeometry x="3000" y="219.99999999999997" width="120" height="80" as="geometry" />
        </mxCell>
        <mxCell id="HEfpb9QHLHgI1IoFtFjU-190" value="课程计划" style="rounded=0;whiteSpace=wrap;html=1;fontSize=19;" vertex="1" parent="1">
          <mxGeometry x="3170" y="368.27" width="120" height="60" as="geometry" />
        </mxCell>
        <mxCell id="HEfpb9QHLHgI1IoFtFjU-191" style="rounded=0;orthogonalLoop=1;jettySize=auto;html=1;exitX=0.5;exitY=1;exitDx=0;exitDy=0;entryX=0.75;entryY=0;entryDx=0;entryDy=0;endArrow=none;startFill=0;fontSize=19;" edge="1" parent="1" source="HEfpb9QHLHgI1IoFtFjU-192" target="HEfpb9QHLHgI1IoFtFjU-190">
          <mxGeometry relative="1" as="geometry" />
        </mxCell>
        <mxCell id="HEfpb9QHLHgI1IoFtFjU-192" value="课程类型" style="ellipse;whiteSpace=wrap;html=1;fontSize=19;" vertex="1" parent="1">
          <mxGeometry x="3200" y="209.99999999999997" width="120" height="80" as="geometry" />
        </mxCell>
        <mxCell id="HEfpb9QHLHgI1IoFtFjU-193" style="rounded=0;orthogonalLoop=1;jettySize=auto;html=1;exitX=0;exitY=0.5;exitDx=0;exitDy=0;entryX=1;entryY=0.5;entryDx=0;entryDy=0;endArrow=none;startFill=0;fontSize=19;" edge="1" parent="1" source="HEfpb9QHLHgI1IoFtFjU-194" target="HEfpb9QHLHgI1IoFtFjU-190">
          <mxGeometry relative="1" as="geometry" />
        </mxCell>
        <mxCell id="HEfpb9QHLHgI1IoFtFjU-194" value="计划" style="ellipse;whiteSpace=wrap;html=1;fontSize=19;" vertex="1" parent="1">
          <mxGeometry x="3355" y="358.27" width="120" height="80" as="geometry" />
        </mxCell>
        <mxCell id="HEfpb9QHLHgI1IoFtFjU-195" style="rounded=0;orthogonalLoop=1;jettySize=auto;html=1;exitX=0.5;exitY=1;exitDx=0;exitDy=0;entryX=0;entryY=0.5;entryDx=0;entryDy=0;endArrow=none;startFill=0;fontSize=19;" edge="1" parent="1" source="HEfpb9QHLHgI1IoFtFjU-189" target="HEfpb9QHLHgI1IoFtFjU-190">
          <mxGeometry relative="1" as="geometry" />
        </mxCell>
        <mxCell id="HEfpb9QHLHgI1IoFtFjU-198" value="拥有" style="rhombus;whiteSpace=wrap;html=1;fontSize=19;" vertex="1" parent="1">
          <mxGeometry x="3120" y="500" width="160" height="80" as="geometry" />
        </mxCell>
        <mxCell id="HEfpb9QHLHgI1IoFtFjU-200" style="rounded=0;orthogonalLoop=1;jettySize=auto;html=1;exitX=0.5;exitY=0;exitDx=0;exitDy=0;entryX=0.5;entryY=1;entryDx=0;entryDy=0;endArrow=none;startFill=0;fontSize=19;" edge="1" parent="1" source="HEfpb9QHLHgI1IoFtFjU-198" target="HEfpb9QHLHgI1IoFtFjU-190">
          <mxGeometry relative="1" as="geometry" />
        </mxCell>
        <mxCell id="HEfpb9QHLHgI1IoFtFjU-202" value="1" style="edgeLabel;html=1;align=center;verticalAlign=middle;resizable=0;points=[];fontSize=19;" vertex="1" connectable="0" parent="HEfpb9QHLHgI1IoFtFjU-200">
          <mxGeometry x="-0.1153" y="-3" relative="1" as="geometry">
            <mxPoint as="offset" />
          </mxGeometry>
        </mxCell>
      </root>
    </mxGraphModel>
  </diagram>
</mxfile>
